<?xml version="1.0" standalone="no"?>
<!DOCTYPE svg PUBLIC "-//W3C//DTD SVG 20010904//EN"
 "http://www.w3.org/TR/2001/REC-SVG-20010904/DTD/svg10.dtd">
<svg version="1.0" xmlns="http://www.w3.org/2000/svg"
 width="50.000000pt" height="51.000000pt" viewBox="0 0 70.000000 72.000000"
 preserveAspectRatio="xMidYMid meet">
<metadata>
</metadata>
<g transform="translate(0.000000,28.000000) scale(0.010000,-0.010000)" fill="#111111" stroke="none">
<path fill="#c1c1c1" d="M1245 2743 c-298 -38 -597 -198 -796 -426 -338 -388 -413 -930 -194
-1404 106 -230 345 -472 583 -592 89 -45 251 -97 356 -116 113 -19 318 -19
432 0 324 56 614 233 814 497 344 454 335 1120 -21 1562 -128 159 -275 276
-454 361 -193 92 -348 126 -559 124 -72 -1 -144 -4 -161 -6z m323 -667 c71
-36 137 -104 170 -174 23 -49 27 -70 27 -152 0 -85 -3 -101 -29 -154 -59 -120
-167 -194 -296 -204 -155 -11 -291 71 -358 217 -38 81 -38 202 0 283 45 97
128 174 221 204 69 23 201 13 265 -20z m137 -941 c145 -30 314 -142 396 -262
l31 -45 -33 -35 c-91 -94 -241 -190 -365 -234 -147 -51 -366 -65 -520 -33
-166 34 -327 118 -468 246 l-58 53 44 60 c95 129 255 229 408 255 85 14 489
11 565 -5z"/>
</g>
</svg>